<svg xmlns="http://www.w3.org/2000/svg">
	<symbol id="candle" viewBox="0 0 24 24">
		<path d="M12.68 5.88c.7-.24 1.22-.9 1.3-1.64c.05-.47-.05-.91-.28-1.27L12.42.75a.506.506 0 0 0-.87 0l-1.28 2.22c-.17.3-.27.65-.27 1.03c0 1.32 1.3 2.35 2.68 1.88zm3.85 10.04l-1-1l-1.08 1.07c-1.3 1.3-3.58 1.31-4.89 0l-1.07-1.07l-1.09 1.07C6.75 16.64 5.88 17 4.96 17c-.73 0-1.4-.23-1.96-.61V20c0 1.1.9 2 2 2h14c1.1 0 2-.9 2-2v-3.61c-.75.51-1.71.75-2.74.52c-.66-.14-1.25-.51-1.73-.99zM18 9h-5V8c0-.55-.45-1-1-1s-1 .45-1 1v1H6c-1.66 0-3 1.34-3 3v1.46c0 .85.5 1.67 1.31 1.94c.73.24 1.52.06 2.03-.46l2.14-2.13l2.13 2.13c.76.76 2.01.76 2.77 0l2.14-2.13l2.13 2.13c.43.43 1.03.63 1.65.55c.99-.13 1.69-1.06 1.69-2.06v-1.42A2.983 2.983 0 0 0 18 9z"/>
	</symbol>
	<symbol id="right-arrow" viewBox="0 0 16 16">
		<path d="M0 14a2 2 0 0 0 2 2h12a2 2 0 0 0 2-2V2a2 2 0 0 0-2-2H2a2 2 0 0 0-2 2v12zm4.5-6.5h5.793L8.146 5.354a.5.5 0 1 1 .708-.708l3 3a.5.5 0 0 1 0 .708l-3 3a.5.5 0 0 1-.708-.708L10.293 8.5H4.5a.5.5 0 0 1 0-1z"/>
	</symbol>
	<symbol id="copy" viewBox="0 0 1024 1024">
		<path d="M832 64H296c-4.4 0-8 3.6-8 8v56c0 4.4 3.6 8 8 8h496v688c0 4.4 3.6 8 8 8h56c4.4 0 8-3.6 8-8V96c0-17.7-14.3-32-32-32zM704 192H192c-17.7 0-32 14.3-32 32v530.7c0 8.5 3.4 16.6 9.4 22.6l173.3 173.3c2.2 2.2 4.7 4 7.4 5.5v1.9h4.2c3.5 1.3 7.2 2 11 2H704c17.7 0 32-14.3 32-32V224c0-17.7-14.3-32-32-32zM350 856.2L263.9 770H350v86.2zM664 888H414V746c0-22.1-17.9-40-40-40H232V264h432v624z"/>
	</symbol>
</svg>